# xmcd
#
# Track frame offsets: 
#        150
#        3873
#        14441
#        29837
#        50954
#        62313
#        78264
#        88160
#        105677
#        116181
#        131502
#        145254
#        155546
#        171967
#        185427
#        206990
#        209803
#        226442
#
# Disc length: 3301 seconds
#
# Revision: 0
# Processed by: cddbd v1.5.2PL0 Copyright (c) Steve Scherf et al.
# Submitted via: ExactAudioCopy v1.1
#
DISCID=0a0ce312
DTITLE=David Grisman, Red Allen, and Friends - Bluegrass Reunion
DYEAR=1991
DGENRE=Bluegrass
TTITLE0=Back Up and Push (Theme)
TTITLE1=She's No Angel
TTITLE2=I'm Just Here to Get My Baby Out Of Jail
TTITLE3=The Fields Have Turned Brown
TTITLE4=To Love and Live Together
TTITLE5=I'm Blue, I'm Lonesome
TTITLE6=Pidgeon Roost
TTITLE7=Down Where the River Bends
TTITLE8=Love Please Come Home
TTITLE9=Letter From My Darlin
TTITLE10=Is This My Destiny?
TTITLE11=Ashes of Love
TTITLE12=Is It Too Late Now?
TTITLE13=Little Maggie
TTITLE14=Will You Miss Me When I'm Gone?
TTITLE15=Back Up and Push (Theme)
TTITLE16=On and On
TTITLE17=The Fields Have Turned Brown (alt)
EXTD=
EXTT0=
EXTT1=
EXTT2=
EXTT3=
EXTT4=
EXTT5=
EXTT6=
EXTT7=
EXTT8=
EXTT9=
EXTT10=
EXTT11=
EXTT12=
EXTT13=
EXTT14=
EXTT15=
EXTT16=
EXTT17=
PLAYORDER=
